Format : Matroska
Format version : Version 2
File size : 1.19 GiB
Duration : 1h 16mn
Overall bit rate : 2 235 Kbps
Writing application : HandBrake 0.9.8
Writing library : libmkv 0.6.5

Video
ID : 1
Format : AVC
Format/Info : Advanced Video Codec
Format profile : High@L3.0
Format settings, CABAC : Yes
Format settings, ReFrames : 4 frames
Codec ID : V_MPEG4/ISO/AVC
Duration : 1h 16mn
Bit rate : 1 800 Kbps
Width : 720 pixels
Height : 480 pixels
Display aspect ratio : 1.85:1
Frame rate mode : Constant
Frame rate : 25.000 fps
Standard : NTSC
Color space : YUV
Chroma subsampling : 4:2:0
Bit depth : 8 bits
Scan type : Progressive
Bits/(Pixel*Frame) : 0.208
Stream size : 953 MiB (78%)
Writing library : x264 core 120
Language : English
Default : Yes
Forced : No
Color primaries : BT.601 NTSC
Transfer characteristics : BT.709
Matrix coefficients : BT.601

Audio
ID : 2
Format : AC-3
Format/Info : Audio Coding 3
Mode extension : CM (complete main)
Format settings, Endianness : Big
Codec ID : A_AC3
Duration : 1h 16mn
Bit rate mode : Constant
Bit rate : 448 Kbps
Channel(s) : 6 channels
Channel positions : Front: L C R, Side: L R, LFE
Sampling rate : 48.0 KHz
Bit depth : 16 bits
Compression mode : Lossy
Stream size : 245 MiB (20%)
Language : English
Default : Yes
Forced : No

Menu
00:00:00.000 : Chapter 1
00:10:08.760 : Chapter 2
00:19:58.840 : Chapter 3
00:30:15.000 : Chapter 4
00:39:28.680 : Chapter 5
00:50:05.240 : Chapter 6
01:02:30.000 : Chapter 7
01:12:14.800 : Chapter 8
 
http://baypic.net/upload/big/2013/05/29/51a63f591744b.png